<svg width="32" height="33" viewBox="0 0 32 33" fill="none" xmlns="http://www.w3.org/2000/svg">
<path d="M5.48186 1.75891H26.0861V31.0585H23.0616V17.6374H23.0319C22.6976 13.9281 19.5802 11.0213 15.784 11.0213C11.9877 11.0213 8.87027 13.9281 8.53597 17.6374H8.50632V31.0585H5.48186V1.75891Z" fill="#855DCD"/>
<path d="M0 5.91753L1.2287 10.0762H2.26834V26.8998C1.74635 26.8998 1.3232 27.323 1.3232 27.845V28.9792H1.13419C0.6122 28.9792 0.18901 29.4023 0.18901 29.9243V31.0585H10.7747V29.9243C10.7747 29.4023 10.3515 28.9792 9.82953 28.9792H9.64052V27.845C9.64052 27.323 9.21733 26.8998 8.69534 26.8998H7.56119V5.91753H0Z" fill="#855DCD"/>
<path d="M23.2506 26.8998C22.7287 26.8998 22.3055 27.323 22.3055 27.845V28.9792H22.1164C21.5945 28.9792 21.1713 29.4023 21.1713 29.9243V31.0585H31.757V29.9243C31.757 29.4023 31.3338 28.9792 30.8118 28.9792H30.6228V27.845C30.6228 27.323 30.1996 26.8998 29.6776 26.8998V10.0762H30.7173L31.946 5.91753H24.3848V26.8998H23.2506Z" fill="#855DCD"/>
</svg>
